<?xml version="1.0" encoding="UTF-8"?>
<svg width="63px" height="71px" viewBox="0 0 63 71" version="1.1" xmlns="http://www.w3.org/2000/svg" xmlns:xlink="http://www.w3.org/1999/xlink">
    <!-- Generator: Sketch 46.2 (44496) - http://www.bohemiancoding.com/sketch -->
    <title>Group 7</title>
    <desc>Created with Sketch.</desc>
    <defs>
        <path d="M25.818378,58.6721888 C11.2635085,56.8632801 -1.3500312e-13,44.469587 -1.3500312e-13,29.4496507 C-1.3500312e-13,13.1850577 13.2075999,0 29.5,0 C45.7924001,0 59,13.1850577 59,29.4496507 C59,44.3280533 47.9477648,56.6294738 33.5921928,58.6182395 L30.0803732,66 L25.818378,58.6721888 Z" id="path-1"></path>
    </defs>
    <g id="Template" stroke="none" stroke-width="1" fill="none" fill-rule="evenodd">
        <g id="LG-(-1050-)" transform="translate(-208.000000, -646.000000)">
            <g id="Group-7" transform="translate(210.000000, 648.000000)">
                <g id="Group-Copy-11" transform="translate(16.000000, 7.000000)" fill="#333333">
                    <path d="M5.84593257,15.3494043 L5.84593257,10.592234 L19.3454543,10.592234 L19.3454543,15.3494043 L13.0390126,12.8914085 C12.9200402,12.8446085 12.7979013,12.8346511 12.680286,12.850583 L12.5956934,12.8411234 L12.5106485,12.850583 C12.3930332,12.8351489 12.2713467,12.8446085 12.1523743,12.8914085 L5.84593257,15.3494043 L5.84593257,15.3494043 Z M24.2635832,17.2667106 L20.9287372,15.966766 L20.9287372,9.72095745 C20.9287372,9.24001277 20.5740818,8.84968085 20.1370957,8.84968085 L5.05429115,8.84968085 C4.61730509,8.84968085 4.26264974,9.24001277 4.26264974,9.72095745 L4.26264974,15.966766 L0.927803737,17.2667106 C0.529268831,17.4220468 0.3121329,17.8945277 0.434271861,18.3396255 L3.29413302,28.7501362 C3.63657447,28.5957957 4.00389609,28.5106596 4.3780032,28.5106596 C4.55352141,28.5106596 4.72723016,28.5315702 4.8982247,28.5664213 L2.16864511,18.6313787 L11.804052,14.8754298 L11.804052,29.4376979 L11.8868351,29.5263191 L12.6119786,30.3846511 L13.2882666,29.5845702 L13.3873349,29.4785234 L13.3873349,14.8754298 L23.0227418,18.6313787 L20.2755199,28.6306468 C20.4573712,28.5913149 20.6423891,28.5689106 20.8292165,28.5689106 C21.1933716,28.5689106 21.5502888,28.6500638 21.8845876,28.7964383 L24.757115,18.3396255 C24.879254,17.8945277 24.6621181,17.4220468 24.2635832,17.2667106 L24.2635832,17.2667106 Z" id="Fill-76"></path>
                    <path d="M8.41854098,5.05937872 L16.7732983,5.05937872 L16.7732983,7.32569362 L18.3565811,7.32569362 L18.3565811,4.18810213 C18.3565811,3.70715745 18.0019258,3.31682553 17.5649397,3.31682553 L13.3873349,3.31682553 L13.3873349,1.12768085 C13.3873349,0.64673617 13.0331319,0.256404255 12.5956934,0.256404255 C12.1587074,0.256404255 11.804052,0.64673617 11.804052,1.12768085 L11.804052,3.31682553 L7.62689957,3.31682553 C7.18991351,3.31682553 6.83525815,3.70715745 6.83525815,4.18810213 L6.83525815,7.32569362 L8.41854098,7.32569362 L8.41854098,5.05937872" id="Fill-77"></path>
                    <path d="M8.07790899,19.675417 C8.17109649,19.675417 8.26518873,19.6569957 8.3574715,19.6191574 L10.0755596,18.9052085 C10.4849513,18.735434 10.6912304,18.232583 10.5369734,17.7825064 C10.3827164,17.3324298 9.92582623,17.1054 9.5168869,17.2751745 L7.79834648,17.9886255 C7.38940714,18.1588979 7.18267564,18.6612511 7.33738499,19.1113277 C7.45680975,19.4603362 7.75808586,19.675417 8.07790899,19.675417" id="Fill-78"></path>
                    <path d="M16.8343678,19.6191574 C16.9261982,19.6569957 17.0207428,19.675417 17.1134779,19.675417 C17.4337534,19.675417 17.7350295,19.4603362 17.8544543,19.1113277 C18.0087113,18.6612511 17.8024321,18.1588979 17.3930404,17.9886255 L15.6745,17.2751745 C15.266013,17.1049021 14.8086705,17.3324298 14.6548659,17.7825064 C14.5001565,18.232583 14.706888,18.735434 15.1158273,18.9052085 L16.8343678,19.6191574" id="Fill-79"></path>
                    <path d="M22.0261783,30.5170851 C21.7154025,30.1491574 21.2797736,29.9380596 20.8301213,29.9380596 L20.8296689,29.9380596 C20.3804689,29.9380596 19.94484,30.1491574 19.6349689,30.5165872 L18.1493972,32.2750723 L18.0761139,32.2750723 L16.5909946,30.5170851 C16.2802188,30.1491574 15.8445898,29.9375617 15.3949375,29.9375617 C14.9457375,29.9375617 14.5096562,30.1491574 14.1993328,30.5165872 L12.6486203,32.3517447 L12.5757893,32.3517447 L10.9762213,30.458834 C10.6654455,30.0904085 10.2298165,29.8798085 9.78061658,29.8798085 C9.33096426,29.8798085 8.8953353,30.0904085 8.58455949,30.458834 L7.11617776,32.1979021 L7.04334675,32.1974043 L5.57406029,30.458834 C5.26328449,30.0904085 4.82720316,29.8798085 4.3780032,29.8798085 C3.92880325,29.8798085 3.49317429,30.0904085 3.18239848,30.4583362 L1.04768087,32.9845404 C0.750023694,33.337034 0.768118355,33.8886766 1.08839385,34.2162766 C1.40866935,34.5438766 1.90943909,34.5239617 2.20709626,34.1714681 L4.34181388,31.6452638 L4.41464489,31.6452638 L5.88393136,33.3843319 C6.19470716,33.7522596 6.63078848,33.9633574 7.07998844,33.9633574 C7.5291884,33.9633574 7.96481736,33.7522596 8.27559316,33.3843319 L9.74442726,31.6452638 L9.8168059,31.6452638 L11.4163739,33.5381745 C11.7271497,33.9066 12.1632311,34.1172 12.612431,34.1172 L12.6128834,34.1172 C13.0620833,34.1172 13.4977123,33.9061021 13.8075834,33.5386723 L15.3587482,31.7035149 L15.4315792,31.7035149 L16.9171508,33.462 C17.2279266,33.8294298 17.6635556,34.0400298 18.1127556,34.0400298 C18.5619555,34.0400298 18.9975845,33.8294298 19.3083603,33.4615021 L20.7939319,31.7035149 L20.8667629,31.7035149 L22.9842906,34.2103021 C23.1403571,34.3950128 23.3520646,34.4881149 23.5642245,34.4881149 C23.757385,34.4881149 23.9505455,34.4114426 24.102993,34.2551106 C24.4232685,33.9275106 24.4418156,33.376366 24.1441584,33.0238723 L22.0261783,30.5170851" id="Fill-80"></path>
                </g>
                <g id="Oval-12-Copy-3">
                    <use stroke="#4CBAFF" stroke-width="2.7" xlink:href="#path-1"></use>
                    <use stroke="#979797" stroke-width="0.9" xlink:href="#path-1"></use>
                </g>
            </g>
        </g>
    </g>
</svg>