<?xml version="1.0" encoding="UTF-8"?>
<svg width="85px" height="96px" viewBox="0 0 85 96" version="1.1" xmlns="http://www.w3.org/2000/svg" xmlns:xlink="http://www.w3.org/1999/xlink">
    <!-- Generator: Sketch 46.2 (44496) - http://www.bohemiancoding.com/sketch -->
    <title>Group</title>
    <desc>Created with Sketch.</desc>
    <defs></defs>
    <g id="Template" stroke="none" stroke-width="1" fill="none" fill-rule="evenodd">
        <g id="LG-(-1050-)" transform="translate(-466.000000, -1416.000000)">
            <g id="Group" transform="translate(466.000000, 1416.000000)">
                <path d="M10.6481481,45.7193309 L43.0555556,24.1320294" id="Line-Copy-6" stroke="#000000" stroke-width="4" stroke-linecap="square"></path>
                <path d="M76.3888889,45.7193309 L43.9814815,24.1320294" id="Line-Copy-7" stroke="#000000" stroke-width="4" stroke-linecap="square"></path>
                <rect id="Rectangle-173" fill="#FEA97C" x="2.77777778" y="41.9894822" width="79.6296296" height="32.4074074"></rect>
                <polygon id="Fill-79-Copy-2" fill="#1D1E1C" points="2.77777778 39.2117045 6.48148148 39.2117045 6.48148148 77.2072195 2.77777778 77.2072195"></polygon>
                <polygon id="Fill-79-Copy-9" fill="#1D1E1C" points="58.3333333 40.1376304 62.037037 40.1376304 62.037037 76.2812936 58.3333333 76.2812936"></polygon>
                <polygon id="Fill-79-Copy-8" fill="#1D1E1C" points="69.4444444 40.1376304 73.1481481 40.1376304 73.1481481 76.2812936 69.4444444 76.2812936"></polygon>
                <polygon id="Fill-79-Copy-3" fill="#1D1E1C" points="80.5555556 39.2117045 84.2592593 39.2117045 84.2592593 77.2072195 80.5555556 77.2072195"></polygon>
                <polygon id="Fill-79-Copy-4" fill="#1D1E1C" points="13.8888889 40.1376304 17.5925926 40.1376304 17.5925926 76.2812936 13.8888889 76.2812936"></polygon>
                <polygon id="Fill-79-Copy-5" fill="#1D1E1C" points="25 40.1376304 28.7037037 40.1376304 28.7037037 76.2812936 25 76.2812936"></polygon>
                <polygon id="Fill-79-Copy-7" fill="#1D1E1C" points="36.1111111 40.1376304 39.8148148 40.1376304 39.8148148 76.2812936 36.1111111 76.2812936"></polygon>
                <polygon id="Fill-79-Copy-6" fill="#1D1E1C" points="47.2222222 40.1376304 50.9259259 40.1376304 50.9259259 76.2812936 47.2222222 76.2812936"></polygon>
                <polygon id="Fill-79-Copy-10" fill="#1D1E1C" points="42.5925926 0.322815565 46.2962963 0.322815565 46.2962963 9.58207482 42.5925926 9.58207482"></polygon>
                <circle id="Oval-46" stroke="#000000" stroke-width="4" fill="#FFFFFF" cx="43.0555556" cy="16.5265193" r="6.94444444"></circle>
                <rect id="Rectangle-174" fill="#FFFFFF" x="29.6296296" y="4.02651927" width="12.962963" height="12.962963"></rect>
                <rect id="Rectangle-171" fill="#1D1E1C" x="2.77777778" y="39.2117045" width="79.6296296" height="3.7037037"></rect>
                <rect id="Rectangle-171-Copy" fill="#1D1E1C" x="2.77777778" y="73.4709637" width="79.6296296" height="3.7037037"></rect>
                <polygon id="Path-375" fill="#E5E5E5" opacity="0.65963153" points="0.139250579 95.1506512 8.13020088 87.1597009 82.8169703 87.1597009 76.0004404 94.9021568"></polygon>
            </g>
        </g>
    </g>
</svg>