<?xml version="1.0" encoding="UTF-8"?>
<svg width="117px" height="68px" viewBox="0 0 117 68" version="1.1" xmlns="http://www.w3.org/2000/svg" xmlns:xlink="http://www.w3.org/1999/xlink">
    <!-- Generator: Sketch 46.2 (44496) - http://www.bohemiancoding.com/sketch -->
    <title>Group</title>
    <desc>Created with Sketch.</desc>
    <defs></defs>
    <g id="Template" stroke="none" stroke-width="1" fill="none" fill-rule="evenodd">
        <g id="LG-(-1050-)" transform="translate(-649.000000, -1447.000000)">
            <g id="Group" transform="translate(649.000000, 1447.000000)">
                <polygon id="Path-377" fill="#88CDED" opacity="0.5" points="23.103389 33.9997542 31.0171622 2.52188964 36.9696723 2.99977231 36.7282444 35.1612306"></polygon>
                <rect id="Rectangle-180" fill="#FEA97C" x="45.3703704" y="9.58207482" width="43.5185185" height="30.5555556"></rect>
                <g id="Group-Copy-2" transform="translate(14.814815, 0.322816)">
                    <polyline id="Fill-74" fill="#1D1E1C" points="8.81388889 37.3953704 5.19814815 36.5916667 13.3287037 0 24.0740741 0 24.0740741 37.037037 20.3703704 37.037037 20.3703704 3.7037037 16.3 3.7037037 8.81388889 37.3953704"></polyline>
                    <polygon id="Fill-75" fill="#1D1E1C" points="7.40740741 7.40740741 22.2222222 7.40740741 22.2222222 11.1111111 7.40740741 11.1111111"></polygon>
                    <polygon id="Fill-76" fill="#FFFFFE" points="92.5925926 1.85185185 96.2962963 1.85185185 96.2962963 16.6666667 92.5925926 16.6666667"></polygon>
                    <polyline id="Fill-77" fill="#1D1E1C" points="83.3333333 31.4814815 79.6296296 31.4814815 79.6296296 8.49166667 88.1212963 0 96.2962963 0 96.2962963 3.7037037 89.6564815 3.7037037 83.3333333 10.0268519 83.3333333 31.4814815"></polyline>
                    <path d="M31.4814815,37.037037 L72.2222222,37.037037 L72.2222222,11.1111111 L31.4814815,11.1111111 L31.4814815,37.037037 Z M27.7777778,7.40740741 L75.9259259,7.40740741 L75.9259259,40.7407407 L27.7777778,40.7407407 L27.7777778,7.40740741 Z" id="Fill-78" fill="#1D1E1C"></path>
                    <polygon id="Fill-79" fill="#1D1E1C" points="42.5925926 9.25925926 46.2962963 9.25925926 46.2962963 38.8888889 42.5925926 38.8888889"></polygon>
                    <polygon id="Fill-80" fill="#1D1E1C" points="57.4074074 9.25925926 61.1111111 9.25925926 61.1111111 38.8888889 57.4074074 38.8888889"></polygon>
                    <polygon id="Fill-81" fill="#1D1E1C" points="29.6296296 22.2222222 74.0740741 22.2222222 74.0740741 25.9259259 29.6296296 25.9259259"></polygon>
                    <polyline id="Fill-82" fill="#88CDED" points="66.6666667 29.6296296 62.962963 33.3333333 0 33.3333333 0 51.8518519 74.0740741 51.8518519 96.2962963 29.6296296 66.6666667 29.6296296"></polyline>
                    <polygon id="Fill-83" fill="#FFFFFF" points="0 44.4444444 81.4814815 44.4444444 81.4814815 48.1481481 0 48.1481481"></polygon>
                </g>
                <path d="M49.8050594,65.4739909 C47.1706712,65.4739909 44.8645114,63.4332676 44.8645114,61.1071293 C44.8645114,60.4763598 44.3536177,59.965466 43.7228482,59.965466 C43.0892254,59.965466 42.5811849,60.4763598 42.5811849,61.1071293 C42.5811849,63.4332676 40.2721711,65.4739909 37.6377837,65.4739909 C35.0062495,65.4739909 32.6972358,63.4332676 32.6972358,61.1071293 C32.6972358,60.4763598 32.1863413,59.965466 31.5555725,59.965466 C30.9248037,59.965466 30.4139093,60.4763598 30.4139093,61.1071293 C30.4139093,63.4332676 28.1048948,65.4739909 25.4733613,65.4739909 C22.8418279,65.4739909 20.5328134,63.4332676 20.5328134,61.1071293 C20.5328134,60.4763598 20.0219189,59.965466 19.3911501,59.965466 C18.7603813,59.965466 18.2494869,60.4763598 18.2494869,61.1071293 C18.2494869,63.4332676 15.9404731,65.4739909 13.3089389,65.4739909 C10.6745515,65.4739909 8.36553772,63.4332676 8.36553772,61.1071293 C8.36553772,60.4763598 7.85464323,59.965466 7.22387446,59.965466 C6.59595894,59.965466 6.0822112,60.4763598 6.0822112,61.1071293 C6.0822112,63.4332676 3.77605142,65.4739909 1.14166326,65.4739909 C0.510894492,65.4739909 0,65.9848854 0,66.6156542 C0,67.2492776 0.510894492,67.7573174 1.14166326,67.7573174 C3.66188509,67.7573174 5.9280863,66.4986339 7.22387446,64.6405767 C8.52251587,66.4986339 10.7887178,67.7573174 13.3089389,67.7573174 C15.8263068,67.7573174 18.0925087,66.4986339 19.3911501,64.6405767 C20.6897923,66.4986339 22.9559942,67.7573174 25.4733613,67.7573174 C27.9907284,67.7573174 30.2569304,66.4986339 31.5555725,64.6405767 C32.8542139,66.4986339 35.1204159,67.7573174 37.6377837,67.7573174 C40.1580048,67.7573174 42.4242068,66.4986339 43.7228482,64.6405767 C45.0186363,66.4986339 47.2848375,67.7573174 49.8050594,67.7573174 C50.4358281,67.7573174 50.9467226,67.2492776 50.9467226,66.6156542 C50.9467226,65.9848854 50.4358281,65.4739909 49.8050594,65.4739909 L49.8050594,65.4739909 Z" id="Shape-Copy-11" fill="#69BFE8" opacity="0.504722481"></path>
                <path d="M115.5458,61.386896 C112.911412,61.386896 110.605252,59.3461727 110.605252,57.0200344 C110.605252,56.3892649 110.094358,55.8783711 109.463589,55.8783711 C108.829966,55.8783711 108.321926,56.3892649 108.321926,57.0200344 C108.321926,59.3461727 106.012912,61.386896 103.378524,61.386896 C100.74699,61.386896 98.4379765,59.3461727 98.4379765,57.0200344 C98.4379765,56.3892649 97.927082,55.8783711 97.2963133,55.8783711 C96.6655445,55.8783711 96.15465,56.3892649 96.15465,57.0200344 C96.15465,59.3461727 93.8456355,61.386896 91.2141021,61.386896 C88.5825686,61.386896 86.2735541,59.3461727 86.2735541,57.0200344 C86.2735541,56.3892649 85.7626596,55.8783711 85.1318909,55.8783711 C84.5011221,55.8783711 83.9902276,56.3892649 83.9902276,57.0200344 C83.9902276,59.3461727 81.6812138,61.386896 79.0496797,61.386896 C76.4152922,61.386896 74.1062785,59.3461727 74.1062785,57.0200344 C74.1062785,56.3892649 73.595384,55.8783711 72.9646152,55.8783711 C72.3366997,55.8783711 71.8229519,56.3892649 71.8229519,57.0200344 C71.8229519,59.3461727 69.5167922,61.386896 66.882404,61.386896 C66.2516352,61.386896 65.7407407,61.8977905 65.7407407,62.5285592 C65.7407407,63.1621827 66.2516352,63.6702225 66.882404,63.6702225 C69.4026258,63.6702225 71.668827,62.4115389 72.9646152,60.5534818 C74.2632566,62.4115389 76.5294586,63.6702225 79.0496797,63.6702225 C81.5670475,63.6702225 83.8332494,62.4115389 85.1318909,60.5534818 C86.430533,62.4115389 88.6967349,63.6702225 91.2141021,63.6702225 C93.7314692,63.6702225 95.9976711,62.4115389 97.2963133,60.5534818 C98.5949547,62.4115389 100.861157,63.6702225 103.378524,63.6702225 C105.898746,63.6702225 108.164947,62.4115389 109.463589,60.5534818 C110.759377,62.4115389 113.025578,63.6702225 115.5458,63.6702225 C116.176569,63.6702225 116.687463,63.1621827 116.687463,62.5285592 C116.687463,61.8977905 116.176569,61.386896 115.5458,61.386896 L115.5458,61.386896 Z" id="Shape-Copy-13" fill="#69BFE8" opacity="0.504722481"></path>
            </g>
        </g>
    </g>
</svg>