<?xml version="1.0" encoding="UTF-8"?>
<svg width="19px" height="18px" viewBox="0 0 19 18" version="1.1" xmlns="http://www.w3.org/2000/svg" xmlns:xlink="http://www.w3.org/1999/xlink">
    <!-- Generator: Sketch 46.2 (44496) - http://www.bohemiancoding.com/sketch -->
    <title>Shape</title>
    <desc>Created with Sketch.</desc>
    <defs></defs>
    <g id="Template" stroke="none" stroke-width="1" fill="none" fill-rule="evenodd">
        <g id="LG-(-1050-)" transform="translate(-1137.000000, -1793.000000)" fill="#FFFFFF">
            <g id="Group" transform="translate(1015.000000, 1780.000000)">
                <path d="M126.475,30.365 L123.025,30.365 L123.025,19.265 L126.475,19.265 L126.475,30.365 L126.475,30.365 Z M124.6,17.84 L124.6,17.84 C123.325,17.84 122.5,17.015 122.5,15.89 C122.5,14.765 123.325,13.94 124.6,13.94 C125.875,13.94 126.7,14.765 126.7,15.89 C126.7,17.015 125.95,17.84 124.6,17.84 L124.6,17.84 Z M140.35,30.365 L136.375,30.365 L136.375,24.59 C136.375,23.09 135.775,22.04 134.425,22.04 C133.375,22.04 132.85,22.715 132.55,23.39 C132.475,23.615 132.475,23.99 132.475,24.29 L132.475,30.29 L128.575,30.29 C128.575,30.29 128.65,20.09 128.575,19.19 L132.475,19.19 L132.475,20.915 C132.7,20.165 133.975,19.04 135.925,19.04 C138.4,19.04 140.35,20.615 140.35,24.065 L140.35,30.365 L140.35,30.365 Z" id="Shape"></path>
            </g>
        </g>
    </g>
</svg>