<?xml version="1.0" encoding="UTF-8"?>
<svg width="41px" height="23px" viewBox="0 0 41 23" version="1.1" xmlns="http://www.w3.org/2000/svg" xmlns:xlink="http://www.w3.org/1999/xlink">
    <!-- Generator: Sketch 46.2 (44496) - http://www.bohemiancoding.com/sketch -->
    <title>Group 4</title>
    <desc>Created with Sketch.</desc>
    <defs>
        <path d="M0,16.5 C0,16.776 0.32149594,17 0.717624867,17 L4.11752645,17 C4.30779956,16.6225714 4.61043222,16.2825714 5,16 L0.717624867,16 C0.32149594,16 0,16.2237143 0,16.5" id="path-1"></path>
    </defs>
    <g id="Template" stroke="none" stroke-width="1" fill="none" fill-rule="evenodd">
        <g id="LG-(-1050-)" transform="translate(-343.000000, -378.000000)">
            <g id="SELECT_TRANSPORTE_HOME" transform="translate(121.000000, 359.000000)">
                <g id="Group-Copy-7" transform="translate(222.000000, 19.000000)">
                    <g id="Group-4">
                        <path d="M20.5002027,21.5402386 C17.1588052,21.5402386 14.4406001,18.74417 14.4406001,15.3070576 C14.4406001,11.7147935 17.9336397,8.20219055 20.5403433,8.20219055 C23.4093796,8.20219055 26.5593999,11.9208283 26.5593999,15.3070576 C26.5593999,18.74417 23.8411948,21.5402386 20.5002027,21.5402386 L20.5002027,21.5402386 Z M24.3086904,8.17382947 L30.2904447,8.17382947 C30.6821192,8.17382947 31,7.84684293 31,7.44394879 C31,7.04063758 30.6821192,6.71406811 30.2904447,6.71406811 L21.2097581,6.71406811 L21.2097581,0.72988068 C21.2097581,0.326986545 20.8918773,0 20.5002027,0 C20.1081227,0 19.7906474,0.326986545 19.7906474,0.72988068 L19.7906474,6.71406811 L10.7095553,6.71406811 C10.3178808,6.71406811 10,7.04063758 10,7.44394879 C10,7.84684293 10.3178808,8.17382947 10.7095553,8.17382947 L16.7874037,8.17382947 C14.6477902,9.80876219 13.0214894,12.6077503 13.0214894,15.3070576 C13.0214894,15.5981758 13.040546,15.8847061 13.071361,16.1678998 L10.8425463,16.1678998 C11.2277335,16.5803866 11.5269631,17.0767055 11.7150966,17.6276611 L13.3709961,17.6276611 C14.3299094,20.7386211 17.1624544,23 20.5002027,23 C23.8379511,23 26.6700906,20.7386211 27.6290039,17.6276611 L29.2853088,17.6276611 C29.4734424,17.0767055 29.772672,16.5803866 30.1582646,16.1678998 L27.928639,16.1678998 C27.959454,15.8847061 27.9785106,15.5981758 27.9785106,15.3070576 C27.9785106,12.5664599 26.4110015,9.79416458 24.3086904,8.17382947 Z" id="Fill-85" fill="#419BF9"></path>
                        <path d="M17.4660704,13.4782609 C17.9169605,12.0313043 19.6214415,11.5217391 20.461297,11.5217391 C21.5627849,11.5217391 23.1267739,12.0578261 23.5412832,13.4782609 L17.4660704,13.4782609 L17.4660704,13.4782609 Z M20.461297,10 C18.6085835,10 16,11.3152174 16,14.2391304 C16,14.6591304 16.3030446,15 16.6773028,15 L24.3226972,15 C24.6965683,15 25,14.6591304 25,14.2391304 C25,11.456087 22.7165219,10 20.461297,10 L20.461297,10 Z" id="Fill-86" fill="#2CA1E9"></path>
                        <path d="M40.2823751,16 L36,16 C36.3895678,16.2825714 36.6922004,16.6225714 36.8824736,17 L40.2823751,17 C40.6785041,17 41,16.776 41,16.5 C41,16.2237143 40.6785041,16 40.2823751,16" id="Fill-87" fill="#419BF9"></path>
                        <g id="Fill-89">
                            <use fill="#FFFFFF" xlink:href="#path-1"></use>
                            <use fill="#2CA1E9" xlink:href="#path-1"></use>
                        </g>
                        <path d="M7.5,19.6896294 C6.844115,19.6896294 6.31027254,19.1557469 6.31027254,18.5001872 C6.31027254,17.8442531 6.844115,17.3103706 7.5,17.3103706 C8.15625936,17.3103706 8.68972746,17.8442531 8.68972746,18.5001872 C8.68972746,19.1557469 8.15625936,19.6896294 7.5,19.6896294 L7.5,19.6896294 Z M7.5,16 C6.12159329,16 5,17.1216773 5,18.5001872 C5,19.8786971 6.12159329,21 7.5,21 C8.87840671,21 10,19.8786971 10,18.5001872 C10,17.1216773 8.87840671,16 7.5,16 L7.5,16 Z" id="Fill-91" fill="#2CA1E9"></path>
                        <path d="M32.5001872,19.6896294 C31.8442531,19.6896294 31.3103706,19.1557469 31.3103706,18.4998128 C31.3103706,17.8442531 31.8442531,17.3103706 32.5001872,17.3103706 C33.1561213,17.3103706 33.6896294,17.8442531 33.6896294,18.4998128 C33.6896294,19.1557469 33.1561213,19.6896294 32.5001872,19.6896294 L32.5001872,19.6896294 Z M32.5001872,16 C31.1216773,16 30,17.1213029 30,18.4998128 C30,19.8783227 31.1216773,21 32.5001872,21 C33.8786971,21 35,19.8783227 35,18.4998128 C35,17.1213029 33.8786971,16 32.5001872,16 L32.5001872,16 Z" id="Fill-92" fill="#419BF9"></path>
                    </g>
                </g>
            </g>
        </g>
    </g>
</svg>