<?xml version="1.0" encoding="UTF-8"?>
<svg width="20px" height="18px" viewBox="0 0 20 18" version="1.1" xmlns="http://www.w3.org/2000/svg" xmlns:xlink="http://www.w3.org/1999/xlink">
    <!-- Generator: Sketch 46.2 (44496) - http://www.bohemiancoding.com/sketch -->
    <title>Shape</title>
    <desc>Created with Sketch.</desc>
    <defs></defs>
    <g id="Template" stroke="none" stroke-width="1" fill="none" fill-rule="evenodd">
        <g id="LG-(-1050-)" transform="translate(-1028.000000, -1795.000000)" fill="#FFFFFF">
            <g id="Group" transform="translate(1015.000000, 1780.000000)">
                <path d="M32.925,17.89 C32.25,18.265 31.425,18.49 30.675,18.565 C31.5,18.04 32.1,17.215 32.4,16.24 C31.65,16.69 30.825,17.065 29.85,17.29 C29.1,16.465 28.125,15.94 27,15.94 C24.825,15.94 23.025,17.815 23.025,20.215 C23.025,20.515 23.025,20.89 23.1,21.19 C19.8,21.04 16.875,19.315 14.925,16.765 C14.55,17.365 14.4,18.115 14.4,18.94 C14.4,20.44 15.075,21.715 16.125,22.465 C15.45,22.465 14.85,22.24 14.325,21.94 L14.325,22.015 C14.325,24.04 15.675,25.765 17.475,26.215 C17.175,26.29 16.8,26.365 16.425,26.365 C16.2,26.365 15.9,26.365 15.675,26.29 C16.2,28.015 17.625,29.215 19.35,29.215 C18,30.34 16.275,31.015 14.475,31.015 C14.175,31.015 13.875,31.015 13.5,30.94 C15.225,32.14 17.325,32.89 19.575,32.89 C26.85,32.89 30.825,26.44 30.825,20.815 L30.825,20.29 C31.725,19.54 32.4,18.79 32.925,17.89 L32.925,17.89 Z" id="Shape"></path>
            </g>
        </g>
    </g>
</svg>